<svg width="128" height="128" xmlns="http://www.w3.org/2000/svg">
  <!-- Goal: Trophy with heart -->
  <defs>
    <linearGradient id="trophyGold" x1="0%" y1="0%" x2="0%" y2="100%">
      <stop offset="0%" style="stop-color:#FFD700;stop-opacity:1" />
      <stop offset="50%" style="stop-color:#FFA500;stop-opacity:1" />
      <stop offset="100%" style="stop-color:#FF8C00;stop-opacity:1" />
    </linearGradient>
    <radialGradient id="heartGrad">
      <stop offset="0%" style="stop-color:#FF6B9D;stop-opacity:1" />
      <stop offset="100%" style="stop-color:#C9184A;stop-opacity:1" />
    </radialGradient>
  </defs>
  
  <!-- Trophy base -->
  <rect x="48" y="100" width="32" height="12" rx="2" fill="url(#trophyGold)" stroke="#B8860B" stroke-width="2"/>
  <rect x="44" y="94" width="40" height="8" rx="2" fill="url(#trophyGold)" stroke="#B8860B" stroke-width="2"/>
  
  <!-- Trophy stem -->
  <rect x="58" y="80" width="12" height="16" fill="url(#trophyGold)" stroke="#B8860B" stroke-width="2"/>
  
  <!-- Trophy cup -->
  <path d="M 38 42 L 42 80 L 86 80 L 90 42 Z" fill="url(#trophyGold)" stroke="#B8860B" stroke-width="3"/>
  <ellipse cx="64" cy="42" rx="26" ry="8" fill="url(#trophyGold)" stroke="#B8860B" stroke-width="3"/>
  
  <!-- Trophy handles -->
  <path d="M 38 48 Q 24 50, 24 62 Q 24 68, 30 68 L 38 64" fill="none" stroke="url(#trophyGold)" stroke-width="6"/>
  <path d="M 90 48 Q 104 50, 104 62 Q 104 68, 98 68 L 90 64" fill="none" stroke="url(#trophyGold)" stroke-width="6"/>
  
  <!-- Heart -->
  <path d="M 64 56 C 64 48, 52 42, 52 52 C 52 48, 64 48, 64 64 C 64 48, 76 48, 76 52 C 76 42, 64 48, 64 56 Z" 
        fill="url(#heartGrad)" stroke="#C9184A" stroke-width="2"/>
  
  <!-- Sparkles around trophy -->
  <circle cx="24" cy="36" r="3" fill="#FFFF00"/>
  <circle cx="104" cy="36" r="3" fill="#FFFF00"/>
  <circle cx="32" cy="24" r="2" fill="#FFFF00"/>
  <circle cx="96" cy="24" r="2" fill="#FFFF00"/>
  <circle cx="64" cy="16" r="4" fill="#FFFF00"/>
  
  <!-- Star on top -->
  <path d="M 64 20 L 66 26 L 72 26 L 67 30 L 69 36 L 64 32 L 59 36 L 61 30 L 56 26 L 62 26 Z" 
        fill="#FFFF00" stroke="#FFD700" stroke-width="1"/>
</svg>
