<svg xmlns="http://www.w3.org/2000/svg" viewBox="0 0 120 120" width="120" height="120">
  <!-- Super Cute Kawaii Character - Player 2 (Different color) -->
  
  <!-- Body (round and chubby) -->
  <ellipse cx="60" cy="70" rx="38" ry="42" fill="#B4E4FF" stroke="#3FA2F6" stroke-width="3"/>
  
  <!-- Head (big and round) -->
  <circle cx="60" cy="45" r="32" fill="#E7F6FF" stroke="#3FA2F6" stroke-width="3"/>
  
  <!-- Cute bunny ears -->
  <ellipse cx="42" cy="20" rx="10" ry="22" fill="#B4E4FF" stroke="#3FA2F6" stroke-width="2.5" transform="rotate(-15 42 20)"/>
  <ellipse cx="78" cy="20" rx="10" ry="22" fill="#B4E4FF" stroke="#3FA2F6" stroke-width="2.5" transform="rotate(15 78 20)"/>
  
  <!-- Inner ears -->
  <ellipse cx="42" cy="23" rx="5" ry="12" fill="#E7F6FF" transform="rotate(-15 42 23)"/>
  <ellipse cx="78" cy="23" rx="5" ry="12" fill="#E7F6FF" transform="rotate(15 78 23)"/>
  
  <!-- Big sparkly eyes -->
  <ellipse cx="48" cy="42" rx="5" ry="7" fill="#2d3436"/>
  <ellipse cx="72" cy="42" rx="5" ry="7" fill="#2d3436"/>
  
  <!-- Eye highlights (sparkles) -->
  <circle cx="50" cy="40" r="2.5" fill="#ffffff"/>
  <circle cx="74" cy="40" r="2.5" fill="#ffffff"/>
  <circle cx="46" cy="44" r="1.5" fill="#ffffff" opacity="0.8"/>
  <circle cx="70" cy="44" r="1.5" fill="#ffffff" opacity="0.8"/>
  
  <!-- Super cute smile -->
  <path d="M 46 54 Q 60 62 74 54" stroke="#3FA2F6" stroke-width="3.5" fill="none" stroke-linecap="round"/>
  
  <!-- Tiny cute nose -->
  <ellipse cx="60" cy="50" rx="2" ry="1.5" fill="#B4E4FF"/>
  
  <!-- Rosy cheeks -->
  <ellipse cx="38" cy="50" rx="7" ry="5" fill="#B4E4FF" opacity="0.7"/>
  <ellipse cx="82" cy="50" rx="7" ry="5" fill="#B4E4FF" opacity="0.7"/>
  
  <!-- Small round arms -->
  <ellipse cx="28" cy="75" rx="12" ry="18" fill="#B4E4FF" stroke="#3FA2F6" stroke-width="2.5" transform="rotate(-20 28 75)"/>
  <ellipse cx="92" cy="75" rx="12" ry="18" fill="#B4E4FF" stroke="#3FA2F6" stroke-width="2.5" transform="rotate(20 92 75)"/>
  
  <!-- Cute little hands -->
  <circle cx="23" cy="88" r="7" fill="#E7F6FF" stroke="#3FA2F6" stroke-width="2"/>
  <circle cx="97" cy="88" r="7" fill="#E7F6FF" stroke="#3FA2F6" stroke-width="2"/>
  
  <!-- Chubby feet -->
  <ellipse cx="48" cy="108" rx="14" ry="10" fill="#B4E4FF" stroke="#3FA2F6" stroke-width="2.5"/>
  <ellipse cx="72" cy="108" rx="14" ry="10" fill="#B4E4FF" stroke="#3FA2F6" stroke-width="2.5"/>
  
  <!-- Toe details -->
  <circle cx="44" cy="108" r="3" fill="#E7F6FF"/>
  <circle cx="52" cy="108" r="3" fill="#E7F6FF"/>
  <circle cx="68" cy="108" r="3" fill="#E7F6FF"/>
  <circle cx="76" cy="108" r="3" fill="#E7F6FF"/>
  
  <!-- Cute belly button -->
  <circle cx="60" cy="80" r="2.5" fill="#3FA2F6" opacity="0.5"/>
  
  <!-- Decorative star on head -->
  <polygon points="60,10 62,16 68,16 63,20 65,26 60,22 55,26 57,20 52,16 58,16" fill="#FFD700" stroke="#FFA500" stroke-width="1.5"/>
  
  <!-- Small heart on belly -->
  <path d="M 60 68 L 62 70 L 60 73 L 58 70 Z" fill="#3FA2F6" opacity="0.6"/>
</svg>
